<svg xmlns="http://www.w3.org/2000/svg" width="1447" height="1451" viewBox="0 0 1447 1451">
  <metadata><?xpacket begin="﻿" id="W5M0MpCehiHzreSzNTczkc9d"?>
<x:xmpmeta xmlns:x="adobe:ns:meta/" x:xmptk="Adobe XMP Core 5.6-c140 79.160451, 2017/05/06-01:08:21        ">
   <rdf:RDF xmlns:rdf="http://www.w3.org/1999/02/22-rdf-syntax-ns#">
      <rdf:Description rdf:about=""/>
   </rdf:RDF>
</x:xmpmeta>
                                                                                                    
                                                                                                    
                                                                                                    
                                                                                                    
                                                                                                    
                                                                                                    
                                                                                                    
                                                                                                    
                                                                                                    
                                                                                                    
                                                                                                    
                                                                                                    
                                                                                                    
                                                                                                    
                                                                                                    
                                                                                                    
                                                                                                    
                                                                                                    
                                                                                                    
                                                                                                    
                           
<?xpacket end="w"?></metadata>
<defs>
    <style>
      .cls-1 {
        fill: #0072bc;
        stroke: #000;
        stroke-width: 1px;
      }

      .cls-2 {
        fill: #fff;
        fill-rule: evenodd;
      }
    </style>
  </defs>
  <rect id="Rounded_Rectangle_2" data-name="Rounded Rectangle 2" class="cls-1" x="55" y="37" width="1315" height="1367" rx="67" ry="67"/>
  <path id="KLR" class="cls-2" d="M229.723,971.005L227.855,797.4l66.785-79.74L443.257,971.005H515L331.877,673.212,502.1,470H428.392L227.006,718.451,224.334,470H170.011L175.4,971.005h54.323Zm590.543,0-0.636-59.123H617.37L612.617,470H558.294l5.389,501.007H820.266Zm126.917,0-2.393-222.48h62.8q27.3,0,42.57,7.364,15.255,7.361,31.7,28.584t48.93,82.357l55.89,104.175h68.33L1181.8,834.646a356.792,356.792,0,0,0-43.39-63.907q-12.12-14.1-35.15-27.853,56.265-9.562,85.44-44.742t28.57-91.872q-0.465-43.029-18.24-75.65t-45.09-46.617q-27.315-14-84.37-14.007h-182.1l5.389,501.007h54.323ZM942.39,525.362h129.83q43.725,0,66.17,21.7t22.85,59.636q0.285,26.321-11.12,46.136T1119,681.884q-19.725,9.226-57.98,9.227H944.173Z"/>
</svg>
